<svg width="113" height="37" viewBox="0 0 113 37" fill="none" xmlns="http://www.w3.org/2000/svg">
<path d="M5.80001 18.2C5.80001 15.2 8.00001 13 10.6 13C13.2 13 15.4 15.2 15.4 18.2C15.4 21.2 13.2 23.4 10.6 23.4C8.00001 23.4 5.80001 21.2 5.80001 18.2ZM21 18.2C21 12.8 16.2 8 10.6 8C5.00001 8 0.200012 12.8 0.200012 18.2C0.200012 23.6 5.00001 28.4 10.6 28.4C16.2 28.4 21 23.6 21 18.2Z" fill="black"/>
<path d="M30.3938 8.4H24.9938V28H30.3938V17.8C30.3938 14.8 31.9938 13.2 34.3938 13.2C36.5938 13.2 38.1938 14.8 38.1938 17.2V28H43.5938V16.6C43.5938 11.2 40.3938 8 35.9938 8C32.3938 8 30.3938 10.8 30.3938 10.8V8.4Z" fill="black"/>
<path d="M56.9828 8C51.9828 8 47.5828 12.4 47.5828 18.2C47.5828 24 51.9828 28.4 56.9828 28.4C60.7828 28.4 62.7828 25.6 62.7828 25.6V28H68.1828V0H62.7828V10.8C62.7828 10.8 60.7828 8 56.9828 8ZM57.9828 23.6C55.3828 23.6 53.1828 21.4 53.1828 18.2C53.1828 15 55.3828 12.8 57.9828 12.8C60.5828 12.8 62.7828 15 62.7828 18.2C62.7828 21.4 60.5828 23.6 57.9828 23.6Z" fill="black"/>
<path d="M84.3875 28C85.5875 28 89.7875 28 89.7875 28V15.8C89.7875 11.4 86.3875 8 81.3875 8C76.1875 8 73.5875 11.8 73.5875 11.8L76.5875 14.8C76.5875 14.8 77.9875 12.8 80.9875 12.8C83.1875 12.8 84.3875 14 84.3875 15.6L78.1875 16.72C74.5875 17.36 72.3875 19.6 72.3875 22.8C72.3875 25.8 74.9875 28.4 78.9875 28.4C82.3875 28.4 84.3875 26 84.3875 26V28ZM80.3875 24C78.5875 24 77.7875 23.2 77.7875 22C77.7875 20.8 78.5875 20.04 79.9875 19.8L84.3875 19V19.6C84.3875 22.4 82.7875 24 80.3875 24Z" fill="black"/>
<path d="M99.5938 29.2C99.0738 30.4 97.9938 31.4 96.1938 31.4C94.9938 31.4 94.1938 31 94.1938 31V35.8C94.1938 35.8 95.5938 36.4 97.5938 36.4C100.994 36.4 103.394 34 105.194 29.2L112.994 8.4H107.394L102.794 21.4L98.1938 8.4H92.5938L100.194 27.8L99.5938 29.2Z" fill="black"/>
</svg>
